<?xml version="1.0" standalone="no"?>
<!DOCTYPE svg PUBLIC "-//W3C//DTD SVG 20010904//EN"
 "http://www.w3.org/TR/2001/REC-SVG-20010904/DTD/svg10.dtd">
<svg version="1.0" xmlns="http://www.w3.org/2000/svg"
 width="1920.000000pt" height="1080.000000pt" viewBox="0 0 1920.000000 1080.000000"
 preserveAspectRatio="xMidYMid meet">

<g transform="translate(0.000000,1080.000000) scale(0.100000,-0.100000)"
fill="#000000" stroke="none">
<path d="M8050 10010 l0 -420 85 0 85 0 0 30 c0 28 -2 30 -40 30 l-40 0 0 360
0 360 40 0 c38 0 40 2 40 30 l0 30 -85 0 -85 0 0 -420z"/>
<path d="M9600 10400 c0 -28 2 -30 40 -30 l40 0 0 -360 0 -360 -40 0 c-38 0
-40 -2 -40 -30 l0 -30 80 0 80 0 0 420 0 420 -80 0 -80 0 0 -30z"/>
<path d="M1977 10380 c-95 -24 -160 -81 -206 -180 -21 -46 -25 -70 -26 -150 0
-119 20 -181 80 -248 62 -69 127 -96 231 -96 68 0 90 5 137 27 30 16 70 44 88
64 150 172 89 500 -107 567 -62 21 -148 28 -197 16z m150 -81 c68 -25 127
-109 140 -201 26 -167 -57 -305 -191 -316 -99 -8 -176 37 -214 126 -81 189 19
402 189 402 26 0 60 -5 76 -11z"/>
<path d="M3475 10381 c-76 -20 -119 -59 -143 -130 -8 -22 -12 -122 -12 -287
l0 -254 40 0 40 0 0 245 c0 267 4 293 55 333 34 27 114 30 155 5 54 -32 69
-98 35 -162 -21 -41 -67 -61 -140 -61 l-55 0 0 -40 0 -40 54 0 c107 0 156 -62
156 -197 l0 -83 41 0 41 0 -4 108 c-4 121 -19 158 -75 189 -18 10 -33 20 -33
23 0 3 17 14 37 25 60 33 78 66 78 143 0 83 -26 131 -88 161 -48 23 -137 34
-182 22z"/>
<path d="M4097 10380 c-95 -24 -160 -81 -206 -180 -21 -46 -25 -70 -26 -150 0
-119 20 -181 80 -248 62 -69 127 -96 231 -96 68 0 90 5 137 27 30 16 70 44 88
64 150 172 89 500 -107 567 -62 21 -148 28 -197 16z m150 -81 c68 -25 127
-109 140 -201 26 -167 -57 -305 -191 -316 -99 -8 -176 37 -214 126 -81 189 19
402 189 402 26 0 60 -5 76 -11z"/>
<path d="M4767 10377 c-51 -17 -103 -60 -127 -107 -18 -36 -20 -59 -20 -300
l0 -260 40 0 40 0 0 250 c0 272 3 287 56 329 20 15 41 21 81 21 47 0 59 -4 84
-29 24 -25 29 -38 29 -79 0 -45 -4 -53 -35 -81 -31 -27 -43 -31 -90 -31 l-55
0 0 -39 0 -39 79 -3 c60 -3 84 -9 100 -23 48 -43 45 -136 -6 -176 -21 -17 -40
-20 -114 -20 l-89 0 0 -41 0 -42 99 5 c170 8 231 57 231 184 0 72 -25 118 -81
148 l-36 20 38 35 c78 75 57 212 -41 262 -46 24 -135 32 -183 16z"/>
<path d="M5417 10380 c-95 -24 -160 -81 -206 -180 -21 -46 -25 -70 -26 -150 0
-119 20 -181 80 -248 62 -69 127 -96 231 -96 68 0 90 5 137 27 30 16 70 44 88
64 150 172 89 500 -107 567 -62 21 -148 28 -197 16z m150 -81 c68 -25 127
-109 140 -201 26 -167 -57 -305 -191 -316 -99 -8 -176 37 -214 126 -81 189 19
402 189 402 26 0 60 -5 76 -11z"/>
<path d="M9225 10381 c-76 -20 -119 -59 -143 -130 -8 -22 -12 -122 -12 -287
l0 -254 40 0 40 0 0 245 c0 267 4 293 55 333 34 27 114 30 155 5 54 -32 69
-98 35 -162 -21 -41 -67 -61 -140 -61 l-55 0 0 -40 0 -40 54 0 c107 0 156 -62
156 -197 l0 -83 41 0 41 0 -4 108 c-4 121 -19 158 -75 189 -18 10 -33 20 -33
23 0 3 17 14 37 25 60 33 78 66 78 143 0 83 -26 131 -88 161 -48 23 -137 34
-182 22z"/>
<path d="M461 10365 c-51 -16 -104 -63 -134 -120 -21 -37 -22 -56 -25 -287
l-3 -248 40 0 41 0 0 130 0 129 43 26 c37 21 56 25 120 25 l77 0 0 40 0 40
-52 0 c-71 -1 -125 -14 -161 -41 l-30 -22 5 86 c7 141 47 177 196 177 l92 0 0
-295 0 -295 40 0 40 0 0 335 0 335 -122 -1 c-74 0 -140 -6 -167 -14z"/>
<path d="M1010 10371 c-51 -10 -78 -28 -100 -64 -19 -30 -20 -52 -20 -314 l0
-283 40 0 40 0 0 145 0 145 90 0 90 0 0 40 0 40 -90 0 -90 0 0 73 c0 39 3 82
6 95 10 35 54 52 139 52 l75 0 0 40 0 40 -72 -1 c-40 -1 -89 -4 -108 -8z"/>
<path d="M1240 10340 l0 -40 80 0 80 0 0 -295 0 -295 45 0 45 0 0 295 0 295
80 0 80 0 0 40 0 40 -205 0 -205 0 0 -40z"/>
<path d="M2500 10046 l0 -336 40 0 40 0 0 295 0 295 105 0 c113 0 150 -11 179
-52 14 -19 16 -63 16 -280 l0 -258 45 0 45 0 0 235 c0 253 -8 320 -46 364 -43
52 -92 64 -266 69 l-158 4 0 -336z"/>
<path d="M5900 10340 l0 -40 80 0 80 0 0 -295 0 -295 45 0 45 0 0 295 0 295
80 0 80 0 0 40 0 40 -205 0 -205 0 0 -40z"/>
<path d="M6410 10045 l0 -335 40 0 40 0 0 335 0 335 -40 0 -40 0 0 -335z"/>
<path d="M6862 10369 c-58 -11 -139 -57 -168 -94 -92 -121 -97 -324 -11 -444
48 -67 136 -110 245 -118 l82 -6 0 42 0 41 -65 0 c-81 0 -120 16 -166 67 -47
52 -63 101 -63 188 0 87 16 136 63 188 46 51 85 67 166 67 l65 0 0 40 0 40
-52 -1 c-29 -1 -72 -5 -96 -10z"/>
<path d="M7227 10369 c-81 -19 -117 -65 -117 -149 0 -91 50 -149 169 -195 90
-34 131 -73 131 -124 0 -81 -53 -111 -195 -111 l-95 0 0 -41 0 -41 118 4 c93
4 125 9 157 25 74 39 105 88 105 169 0 93 -41 141 -161 188 -36 15 -82 40
-102 57 -31 26 -37 37 -37 69 0 30 6 43 26 59 23 18 41 21 130 21 l104 0 0 40
0 40 -97 -1 c-54 -1 -115 -5 -136 -10z"/>
<path d="M8481 10365 c-51 -16 -104 -63 -134 -120 -21 -37 -22 -56 -25 -287
l-3 -248 40 0 41 0 0 130 0 129 43 26 c37 21 56 25 120 25 l77 0 0 40 0 40
-52 0 c-71 -1 -125 -14 -161 -41 l-30 -22 5 86 c7 141 47 177 196 177 l92 0 0
-295 0 -295 40 0 40 0 0 335 0 335 -122 -1 c-74 0 -140 -6 -167 -14z"/>
<path d="M11440 10046 l0 -336 40 0 40 0 0 279 c0 154 4 282 9 285 24 15 53
-51 115 -261 36 -123 66 -225 66 -228 0 -4 19 -5 41 -3 l42 3 67 227 c60 205
86 268 112 268 4 0 8 -128 8 -285 l0 -285 40 0 40 0 0 336 0 335 -47 -7 c-66
-9 -117 -37 -142 -77 -11 -19 -41 -109 -65 -202 -43 -159 -51 -184 -59 -174
-2 2 -21 69 -41 149 -67 256 -87 284 -223 305 l-43 7 0 -336z"/>
<path d="M12787 10369 c-81 -19 -117 -65 -117 -149 0 -91 50 -149 169 -195 90
-34 131 -73 131 -124 0 -81 -53 -111 -195 -111 l-95 0 0 -41 0 -41 118 4 c93
4 125 9 157 25 74 39 105 88 105 169 0 93 -41 141 -161 188 -36 15 -82 40
-102 57 -31 26 -37 37 -37 69 0 30 6 43 26 59 23 18 41 21 130 21 l104 0 0 40
0 40 -97 -1 c-54 -1 -115 -5 -136 -10z"/>
<path d="M13160 10045 l0 -335 40 0 40 0 0 190 0 190 76 0 c132 0 144 -20 144
-235 l0 -145 40 0 40 0 0 139 c0 154 -11 235 -38 264 -28 32 -80 48 -173 54
l-89 6 0 103 0 104 -40 0 -40 0 0 -335z"/>
<path d="M14500 10084 l0 -296 -104 4 c-100 3 -106 4 -136 33 -61 59 -64 169
-6 233 28 30 40 36 88 40 39 3 64 -1 87 -12 l32 -17 -3 43 c-3 42 -4 43 -52
56 -69 20 -139 4 -196 -45 -57 -49 -80 -101 -80 -183 0 -90 42 -162 115 -200
45 -23 63 -25 192 -28 l143 -4 0 336 0 336 -40 0 -40 0 0 -296z"/>
<path d="M14865 10171 c-72 -18 -133 -70 -162 -138 -7 -18 -13 -60 -13 -93 0
-138 91 -232 225 -234 145 -2 247 113 232 262 -15 140 -148 235 -282 203z
m133 -91 c38 -24 72 -89 72 -140 0 -51 -34 -116 -72 -140 -47 -30 -137 -24
-174 11 -39 36 -54 72 -54 129 0 70 38 134 90 153 36 13 106 6 138 -13z"/>
<path d="M12277 10156 c-87 -32 -97 -59 -97 -276 l0 -170 35 0 35 0 1 128 c0
154 10 221 35 239 11 8 46 13 91 13 l73 0 0 40 0 40 -67 0 c-38 -1 -85 -7
-106 -14z"/>
<path d="M13690 10131 l0 -41 101 0 c98 0 101 -1 130 -29 29 -29 29 -30 29
-150 l0 -121 -88 0 c-63 0 -94 4 -110 16 -29 20 -29 67 -1 95 19 19 30 21 90
17 l69 -5 0 33 c0 30 -3 34 -41 44 -72 20 -158 -5 -198 -56 -16 -20 -21 -41
-21 -81 0 -49 4 -59 33 -88 44 -44 90 -55 230 -55 l118 0 -3 179 c-3 164 -5
182 -24 208 -40 53 -77 66 -201 71 l-113 5 0 -42z"/>
<path d="M15243 10058 c10 -164 36 -248 100 -315 17 -18 39 -33 48 -33 10 0
34 19 54 42 34 40 55 96 70 181 8 50 21 39 29 -25 10 -72 36 -127 81 -171 l38
-37 28 20 c60 43 106 157 114 284 3 44 8 100 10 124 l5 42 -39 0 c-45 0 -51
-11 -51 -100 0 -114 -35 -247 -67 -257 -24 -8 -73 122 -88 230 l-6 47 -43 0
-44 0 -7 -57 c-13 -106 -58 -223 -86 -223 -30 0 -69 170 -69 301 l0 59 -42 0
-41 0 6 -112z"/>
<path d="M8870 9800 c-11 -11 -20 -29 -20 -40 0 -24 34 -60 55 -60 18 0 65 44
65 60 0 16 -47 60 -65 60 -8 0 -24 -9 -35 -20z"/>
<path d="M12490 9800 c-11 -11 -20 -29 -20 -40 0 -24 34 -60 55 -60 18 0 65
44 65 60 0 16 -47 60 -65 60 -8 0 -24 -9 -35 -20z"/>
</g>
</svg>
